<?xml version="1.0" standalone="no"?>
<!DOCTYPE svg PUBLIC "-//W3C//DTD SVG 1.1//EN" "http://www.w3.org/Graphics/SVG/1.1/DTD/svg11.dtd" >
<svg xmlns="http://www.w3.org/2000/svg">
<metadata>
<json>
{
	"fontFamily": "icomoon",
	"majorVersion": 1,
	"minorVersion": 0,
	"version": "Version 1.0",
	"fontId": "icomoon",
	"psName": "icomoon",
	"subFamily": "Regular",
	"fullName": "icomoon",
	"description": "Font generated by IcoMoon."
}
</json>
</metadata>
<defs>
<font id="icomoon" horiz-adv-x="1024">
<font-face units-per-em="1024" ascent="960" descent="-64" />
<missing-glyph horiz-adv-x="1024" />
<glyph unicode="&#x20;" d="" horiz-adv-x="512" />
<glyph unicode="&#xe600;" d="M808.755 92.945l-28.16 543.812c-0.785 15.326-13.278 27.102-28.467 27.102h-83.081v26.726c0 91.136-74.138 165.239-165.342 165.239-91.034 0-165.137-74.103-165.137-165.239v-26.726h-83.081c-15.223 0-27.716-11.776-28.467-27.102l-28.228-545.417c-0.41-7.714 2.423-15.326 7.748-21.026 5.461-5.598 12.902-8.841 20.651-8.841h553.165c15.77 0 28.501 12.698 28.501 28.467 0.034 1.092-0.068 1.946-0.102 3.004zM423.287 690.586c0 44.442 36.113 80.555 80.418 80.555 44.476 0 80.589-36.147 80.589-80.555v-26.726h-161.007v26.726zM398.609 509.679c-27.511 0-49.903 22.46-49.903 50.039 0 27.511 22.426 49.869 49.903 49.869 27.648 0 49.971-22.357 49.971-49.869 0-27.58-22.323-50.039-49.971-50.039zM624.435 514.321c-26.761 0-48.435 21.709-48.435 48.469s21.675 48.469 48.435 48.469c26.863 0 48.503-21.709 48.503-48.469s-21.641-48.469-48.503-48.469z" data-tags="iconos-01" />
<glyph unicode="&#xe601;" d="M692.804 848.35c29.525 0 53.726-23.996 53.726-53.487v-740.557c0-24.747-20.48-44.032-45.158-44.032h-36.932c-12.083 0-23.62 4.574-32.017 13.244-8.431 8.602-12.937 19.968-12.527 32.051l8.738 282.078h-1.502c-15.77 0-30.72 6.554-41.404 18.091-10.752 11.537-16.316 27.068-15.087 42.735l25.805 360.141c3.652 50.483 45.739 89.737 96.358 89.737zM479.983 847.77h-3.721c-8.943 0-15.872-6.827-15.872-15.804v-158.822c0-14.063-11.81-25.566-25.907-25.566h-3.823c-13.995 0-25.941 11.503-25.941 25.566v158.822c0 9.011-6.793 15.804-15.804 15.804h-3.789c-9.079 0-16.247-6.827-16.247-15.804v-158.822c0-14.063-11.503-25.566-25.566-25.566h-3.823c-14.029 0-24.917 11.503-24.917 25.566v158.822c0 9.011-7.817 15.804-16.794 15.804h-3.857c-9.045 0-16.486-6.827-16.486-15.804v-240.162c0-29.594 24.064-52.941 53.623-52.941h7.1l-15.019-483.191c-0.444-12.083 4.13-23.552 12.493-32.154 8.431-8.67 19.968-13.244 32.085-13.244h35.567c11.981 0 23.552 4.574 31.983 13.244s12.902 20.309 12.629 32.222l-15.155 483.26h10.172c29.594 0 53.282 23.211 53.282 52.838v240.128c-0.102 8.977-7.134 15.804-16.213 15.804z" data-tags="iconos-02" />
<glyph unicode="&#xe602;" d="M897.058 433.562l-26.317 19.251c-1.775 1.263-3.857 1.946-6.007 2.082l-49.391 1.195c-4.335 0.068-8.124 2.731-9.66 6.793l-18.227 48.469c-0.717 1.809-1.98 3.584-3.686 4.813l-37.342 27.204c-1.809 1.331-3.857 2.082-6.007 2.082l-49.391 1.195c-4.335 0.205-8.158 2.799-9.66 6.793l-18.91 49.015c-0.717 1.946-2.014 3.584-3.652 4.813l-54.818 39.936c7.339 63.795-21.129 129.195-78.848 166.127-80.794 51.61-188.075 28.058-239.753-52.668-51.61-80.725-27.853-188.006 52.804-239.616 7.543-4.881 15.531-8.943 23.347-12.459v-25.6h-30.208c-13.312 0-25.668-7.134-32.461-18.534l-34.748-57.993c-3.55-5.939-5.291-12.8-5.291-19.729v-292.932c0.034-20.924 16.759-38.4 37.717-38.4h197.359c20.855 0 37.717 17.545 37.717 38.4v292.523c0 6.793-1.809 13.585-5.257 19.456l-34.85 58.47c-6.827 11.605-19.183 18.739-32.495 18.739h-30.037v10.718c32.495-0.478 64.717 8.26 92.638 25.19l316.826-176.538c24.371-13.653 55.091-5.939 70.11 17.545l1.809 2.662c15.019 23.552 9.182 54.682-13.312 70.997zM444.928 409.020c0-27.614-22.221-49.937-49.801-49.937-27.546 0-49.63 22.323-49.63 49.937 0 14.268 5.564 27.204 15.974 36.318v-14.404c0-18.807 14.95-34.065 33.758-34.065 18.91 0 33.826 15.258 33.826 34.065v14.404c10.377-9.114 15.872-22.050 15.872-36.318zM451.072 654.575c-5.803-8.943-12.937-16.077-22.016-21.197v36.659c0 18.876-14.95 34.133-33.826 34.133-18.842 0-33.758-15.258-33.758-34.133v-36.659c-1.263 0.41-1.263 0.717-1.877 0.99-30.925 19.797-40.038 60.928-20.207 91.716 19.729 30.925 60.689 40.073 91.614 20.207 30.925-19.797 39.799-60.791 20.070-91.716z" data-tags="iconos-03" />
<glyph unicode="&#xe603;" d="M953.412 728.644c-2.492 3.857-6.417 6.383-10.786 7.168h-0.307c-41.301-13.517-132.335-12.151-235.93 5.769-103.629 18.091-189.679 47.684-223.949 74.274h-0.375c-4.335 0.853-8.806-0.239-12.425-2.935-3.618-2.799-5.939-6.895-6.281-11.332l-13.073-149.163c3.721 0.512 7.475 1.229 11.366 1.229 16.384 0 31.949-4.949 45.329-14.302 13.687-9.66 23.859-23.245 29.321-38.878 9.626 7.066 24.132 12.015 40.653 12.595 29.559 1.161 54.238-11.503 54.852-28.228 0.649-16.623-22.903-31.13-52.565-32.017-13.653-0.683-26.146 1.843-35.84 6.212l20.002-150.562c23.040 22.255 55.774 33.826 89.737 27.887 51.439-8.909 85.948-71.236 76.8-88.678-0.205-0.375-7.612 3.789-7.612 3.789s-23.142 20.582-73.933 30.345c-50.79 9.728-77.653-13.312-77.653-13.312l11.708-104.243c1.092-8.943 1.468-17.783 1.638-26.453 10.786-3.789 21.709-6.758 33.075-8.738 112.367-19.49 221.321 49.186 251.972 159.13l86.255 327.612c1.092 4.437 0.341 9.045-1.98 12.834v0zM823.262 528.862c-6.281-15.531-33.519-19.046-61.099-7.987s-44.749 32.597-38.639 48.026c6.212 15.462 33.621 19.046 61.201 7.953 27.477-11.093 44.783-32.597 38.537-47.991v0zM559.479 271.974l-42.223 319.556c-0.649 4.369-2.799 8.090-6.417 10.615-2.628 1.877-5.564 2.833-8.704 2.833-1.058 0-2.15-0.137-3.311-0.341l-0.273-0.171c-31.505-26.795-112.094-58.436-209.783-79.838-64.137-13.995-123.153-21.026-167.561-21.026-23.381 0-42.735 1.911-56.388 5.769h-0.341c-4.198-0.853-7.817-3.55-9.933-7.305-2.219-3.721-2.731-8.124-1.434-12.117l95.334-308.019c29.013-88.371 111.275-145.749 200.943-145.749 14.95 0 30.208 1.843 45.363 4.983 105.916 23.245 177.186 123.017 164.727 230.81zM181.487 339.968c0 15.872 22.767 28.945 50.961 29.15 28.228 0.137 51.063-12.663 51.302-28.467 0.137-15.838-22.767-28.945-50.995-29.082-28.194-0.102-51.098 12.493-51.268 28.399zM260.779 200.26c0 0 96.427-28.911 200.055 41.643 0 0-60.245-178.381-200.055-41.643zM428.749 354.441c-25.702-11.537-51.917-9.318-58.436 5.154-6.554 14.473 8.943 35.703 34.577 47.241 25.839 11.742 51.917 9.318 58.47-4.983 6.451-14.473-8.977-35.703-34.611-47.411z" data-tags="iconos-04" />
<glyph unicode="&#xe604;" d="M873.472 187.87c-6.929 6.144-16.145 8.909-25.19 7.612-34.236-4.13-88.098-9.148-142.097-6.793-36.898 1.877-70.315 8.909-101.956 19.081l-113.323 324.335c107.93 34.816 198.417 48.811 249.071 54.204 10.65 1.263 19.866 7.543 24.883 16.896 5.052 9.353 5.052 20.446 0.205 29.935-68.983 132.983-221.116 202.786-367.855 167.185l-2.662 7.851c-2.833 7.851-8.806 14.677-16.418 18.261-7.646 3.823-16.452 4.267-24.508 1.399l-0.683-0.137c-16.623-6.007-25.463-24.166-19.627-40.926l2.662-7.748c-136.636-63.249-212.070-212.070-184.047-358.571 2.048-10.513 9.114-19.285 18.944-23.552 9.796-4.164 21.129-3.243 30.037 2.628 40.482 26.385 115.405 68.949 228.83 111.138l95.198-272.521c-76.937 32.597-150.528 66.731-247.842 51.917-62.089-9.455-111.104-58.505-129.673-79.428-5.12-6.042-8.021-13.517-8.021-21.265v-69.632c0-17.783 14.575-32.119 32.188-32.119h680.721c17.715 0 32.256 14.336 32.256 32.119v44.066c-0.068 9.114-4.164 17.783-11.093 24.064z" data-tags="iconos-05" />
<glyph unicode="&#xe605;" d="M512 320.341c105.609 0 191.556 105.131 191.556 234.189 0 128.922-86.016 233.95-191.556 233.95-52.053 0-100.762-24.917-137.011-70.281-35.157-43.93-54.545-102.161-54.545-163.703 0.034-129.024 85.948-234.155 191.556-234.155zM512 745.882c82.091 0 148.924-85.879 148.924-191.317 0-105.745-66.833-191.522-148.924-191.522-82.125 0-148.992 85.811-148.992 191.522 0 105.438 66.867 191.317 148.992 191.317zM660.924 363.008c-11.776 0-21.231-9.626-21.231-21.333 0-11.639 9.455-21.333 21.231-21.333 82.091 0 148.89-66.867 148.89-148.924 0-11.776-9.455-21.299-21.197-21.299h-553.233c-11.742 0-21.299 9.523-21.299 21.299 0 82.057 66.867 148.924 148.924 148.924 11.878 0 21.333 9.694 21.333 21.333 0 11.708-9.455 21.333-21.333 21.333-105.609 0-191.454-86.084-191.454-191.59 0-35.157 28.706-63.898 63.829-63.898h553.267c35.191 0 63.829 28.74 63.829 63.898 0 105.472-85.914 191.59-191.556 191.59z" data-tags="iconos-06" />
<glyph unicode="&#xe606;" d="M461.039 502.818h-225.246c-9.045 0-17.033-5.905-19.49-14.677l-43.247-149.675 302.967-33.041 23.859 113.732c-14.848 26.385-28.433 54.818-38.844 83.661zM743.97 276.070l90.999-9.967-27.102 94.174c-3.618-5.359-7.373-10.65-10.889-15.667-18.33-25.805-36.727-49.015-53.009-68.54zM546.645 345.463l-9.728-46.694 49.186-5.427c-12.39 15.394-25.463 32.563-38.639 51.063-0.307 0.341-0.58 0.751-0.819 1.058zM114.79 136.841c-1.775-6.212-0.58-12.868 3.243-17.92 3.857-5.086 9.865-8.055 16.213-8.055h301.193l28.092 134.588-307.644 33.792-41.097-142.404zM853.299 202.991l-328.909 35.874-26.761-128.034h355.328c11.127 0 20.241 9.079 20.241 20.343 0 2.389-0.444 4.71-1.161 6.895l-18.739 64.922zM663.757 250.231c2.15-2.287 5.12-3.584 8.363-3.584 3.209 0 6.178 1.297 8.329 3.584 18.534 19.695 55.057 60.45 91.716 111.957 46.080 64.956 101.035 160.017 101.035 244.873 0 110.831-90.214 201.182-201.079 201.182-110.831 0-201.011-90.317-201.011-201.182 0-84.855 54.955-180.122 101.171-245.077 36.659-51.473 73.045-92.058 91.477-111.753zM672.119 732.57c67.652 0 122.709-55.091 122.709-122.812s-55.023-122.914-122.709-122.914c-67.686 0-122.743 55.194-122.743 122.914s55.057 122.812 122.743 122.812z" data-tags="iconos-07" />
<glyph unicode="&#xe607;" d="M856.576 529.647v111.479c0 57.515-50.79 104.619-114.005 106.086v-65.775c0-37.41-30.413-67.721-67.789-67.721-37.308 0-67.686 30.345-67.686 67.721v65.98h-192.239v-66.014c0-37.41-30.413-67.721-67.789-67.721s-67.755 30.345-67.755 67.755v65.809c-62.259-2.697-111.923-49.152-111.923-106.121v-465.51c0-64.649 52.702-117.282 117.35-117.282h454.554c64.683 0 117.282 52.634 117.282 117.282v354.031zM805.581 175.616c0-36.454-29.798-66.253-66.253-66.253h-454.588c-36.489 0-66.253 29.798-66.253 66.253v354.031h587.093v-354.031zM317.542 766.737v-85.299c0-16.247 13.21-29.457 29.559-29.457 16.213 0 29.423 13.244 29.423 29.457v85.299c0 16.282-13.244 29.321-29.423 29.321-16.384 0-29.559-13.073-29.559-29.321zM674.85 796.16c-16.316 0-29.491-13.175-29.491-29.423v-85.299c0-16.247 13.21-29.457 29.491-29.457s29.559 13.244 29.559 29.457v85.299c-0.068 16.247-13.312 29.423-29.559 29.423zM426.667 177.084c33.212 0 58.402 9.216 75.298 27.853 16.93 18.705 25.463 40.175 25.463 64.717 0 23.279-7.202 41.643-21.777 55.023-3.891 3.721-7.509 6.758-10.684 8.772-5.871 3.959-6.315 6.724-0.717 11.127 3.004 2.287 6.11 5.188 9.079 8.636 10.103 11.742 15.189 26.146 15.189 43.213 0 23.996-8.431 43.349-25.463 57.583-17.033 14.37-39.253 21.641-67.038 21.641-14.916 0-27.511-1.843-37.751-5.461s-19.081-8.841-26.522-15.565c-10.001-9.591-17.237-20.036-21.982-31.403-3.038-8.943-5.257-18.569-6.349-28.228-0.819-7.066 4.642-12.8 11.708-12.8h27.716c6.963 0 12.425 5.734 13.414 12.8 1.297 8.533 4.096 15.531 8.397 21.436 6.246 8.499 16.179 12.8 29.559 12.8 11.742 0 20.821-3.413 27.238-10.342 6.417-6.963 9.728-16.145 9.728-27.034 0-17.033-6.417-28.467-19.012-33.929-5.427-2.526-14.199-4.13-25.941-5.018-6.929-0.444-12.698-6.178-12.698-13.21v-15.258c0-7.134 5.769-12.698 12.8-13.107 12.459-0.751 22.016-2.355 28.74-5.052 15.326-6.383 23.040-19.115 23.040-38.161 0-14.541-4.13-25.327-12.459-33.109-8.294-7.817-18.057-11.435-29.15-11.435-18.261 0-30.891 6.929-37.786 20.821-2.253 4.574-3.721 10.035-4.71 16.111-0.922 6.827-6.485 12.8-13.619 12.8h-30.447c-7.066 0-12.595-5.871-11.844-12.698 1.911-17.408 6.281-31.812 13.107-43.315 15.94-26.795 44.407-40.209 85.47-40.209zM585.25 384.171h42.633c6.997 0 12.698-5.769 12.698-12.698v-174.387c0-7.134 5.734-12.663 12.766-12.663h32.905c7.031 0 12.8 5.53 12.8 12.663v264.26c0 7.031-5.769 12.663-12.8 12.663h-22.084c-7.066 0-12.834-2.389-13.517-5.769-0.375-1.707-0.819-3.516-1.468-5.598-2.423-8.772-6.246-15.701-11.162-20.855-7.168-7.578-16.452-12.663-27.887-15.189-5.359-1.195-13.653-2.15-24.951-2.901-7.031-0.478-12.698-6.417-12.698-13.38v-13.346c-0.034-7.031 5.734-12.8 12.766-12.8z" data-tags="iconos-08" />
<glyph unicode="&#xe608;" d="M471.074 437.862c0-82.91-67.209-150.050-150.050-150.050-82.91 0-150.084 67.14-150.084 150.050 0 82.773 67.209 150.050 150.084 150.050 82.842 0 150.050-67.277 150.050-150.050zM702.942 587.913c-82.807 0-150.050-67.277-150.050-150.050 0-82.91 67.243-150.050 150.050-150.050 82.842 0 150.050 67.14 150.050 150.050 0 82.773-67.209 150.050-150.050 150.050z" data-tags="iconos-09" />
<glyph unicode="&#xe609;" d="M107.247 195.959c0-39.424 31.505-71.475 70.451-71.475h645.803c38.878 0 70.451 32.017 70.451 71.475v318.157h-786.705v-318.157zM633.515 449.161h168.721v-51.405h-168.721v51.405zM633.515 361.165h168.721v-51.337h-168.721v51.337zM633.515 273.067h168.721v-51.302h-168.721v51.302zM107.247 641.877v-55.228h786.705v55.228c0 39.424-31.642 71.236-70.485 71.236h-645.769c-38.98 0-70.451-31.812-70.451-71.236z" data-tags="iconos-10" />
<glyph unicode="&#xe60a;" d="M789.948 776.158h-526.234c-41.37 0-75.196-33.894-75.196-75.23v-526.268c0-41.335 33.826-75.059 75.196-75.059h526.234c41.37 0 75.196 33.724 75.196 75.059v526.268c0 41.335-33.86 75.23-75.196 75.23zM444.177 385.195v-135.27h-67.755v375.706h161.758c56.32 0 82.569-11.23 105.165-33.724 26.317-22.494 33.894-52.634 33.894-86.323 0-37.717-11.332-67.686-33.894-86.528-22.596-18.842-48.845-30.174-105.165-30.174h-94.003v-3.686zM444.177 437.862v135.305h86.391c26.351 0 45.090-7.578 56.32-22.562 11.332-15.019 18.876-26.317 18.876-45.022 0-22.699-7.543-33.894-18.876-49.050-11.23-11.196-26.317-18.671-52.531-18.671h-90.18z" data-tags="iconos-11" />
<glyph unicode="&#xe60b;" d="M673.724 373.658c-11.605-18.807-24.371-38.434-38.161-58.846 116.019-17.306 175.411-54.511 175.411-73.011 0-24.61-105.233-82.432-309.35-82.432s-309.385 57.822-309.385 82.432c0 18.5 59.392 55.637 175.514 73.011-13.824 20.412-26.59 40.038-38.229 58.846-114.517-21.572-201.967-66.014-201.967-131.823 0-96.495 188.245-147.046 374.101-147.046 185.89 0 374.101 50.517 374.101 147.046-0.068 65.843-87.45 110.251-202.035 131.823zM502.477 827.631c-121.31 0-219.614-98.236-219.614-219.511 0-87.040 112.913-253.508 176.811-340.685 10.069-13.585 25.873-21.572 42.803-21.572 16.862 0 32.768 7.953 42.701 21.572 63.898 87.211 176.879 253.679 176.879 340.685-0.034 121.276-98.372 219.511-219.58 219.511zM502.477 471.757c-71.714 0-130.014 58.3-130.014 129.911 0 71.68 58.3 130.014 130.014 130.014 71.646 0 129.911-58.334 129.911-130.014-0.034-71.612-58.3-129.911-129.911-129.911zM502.477 680.789c-43.554 0-79.019-35.499-79.019-79.121 0-43.52 35.465-78.916 79.019-78.916s79.019 35.362 79.019 78.916c0 43.622-35.465 79.121-79.019 79.121z" data-tags="iconos-12" />
<glyph unicode="&#xe60c;" d="M515.072 146.057c0.649 3.277 0.887 6.519 0.887 9.796l32.017 267.093h3.994l299.93-98.816-7.066 77.653-292.864 197.222h-1.161l-16.521 184.115c0 0-11.913 55.74-36.489 55.74-24.644 0-34.27-48.503-34.27-48.503l-18.705-198.895-271.394-189.645-7.066-87.552 281.156 104.209 25.088-255.556c0-6.007 0.171-11.742 0.717-17.34l-91.409-62.396v-38.946l92.535 31.881h46.285l94.618-29.798v33.929l-100.284 65.809z" data-tags="iconos aereo" />
<glyph unicode="&#xe60d;" d="M509.133 788.446c-187.631 0-340.275-152.644-340.275-340.275s152.644-340.241 340.275-340.241c187.597 0 340.241 152.61 340.241 340.241s-152.644 340.275-340.241 340.275zM509.133 194.389c-139.913 0-253.679 113.869-253.679 253.781 0 119.398 83.763 222.857 200.021 247.979l46.729-62.43c1.673-2.116 4.198-3.379 6.929-3.379 2.697 0 5.257 1.263 6.929 3.379l46.729 62.43c116.258-25.122 200.055-128.58 200.055-247.979 0.034-139.913-113.835-253.781-253.713-253.781zM666.897 600.781l-199.782-124.996c-1.058-0.683-2.014-1.57-2.731-2.731l-124.894-199.782c-2.219-3.311-1.741-7.919 1.126-10.65 1.707-1.741 3.891-2.526 6.144-2.526 1.57 0 3.243 0.41 4.642 1.365l199.68 124.894c1.126 0.717 2.048 1.775 2.731 2.799l125.065 199.782c2.116 3.379 1.604 7.851-1.263 10.684-2.867 2.867-7.27 3.345-10.718 1.161z" data-tags="iconos bussola" />
<glyph unicode="&#xe60e;" d="M843.435 417.075c0 13.278-2.935 25.873-8.294 37.444-0.546 2.935-1.195 5.871-2.048 8.806l-58.368 144.896-0.41 1.263c-20.514 60.86-49.562 117.282-123.392 117.282h-282.010c-75.639 0-102.332-57.719-123.221-116.941l-61.133-145.169c-8.841-14.199-13.892-30.31-13.892-47.582v-45.056c0-6.929 0.887-13.722 2.389-20.412-1.502-3.891-2.389-8.192-2.389-12.732v-134.007c0-19.661 16.009-35.601 35.601-35.601h73.899c19.627 0 35.567 15.94 35.567 35.601v67.004h387.004v-67.004c0-19.661 15.872-35.601 35.601-35.601h69.564c19.695 0 35.567 15.94 35.567 35.601v134.076c0 4.471-0.785 8.806-2.355 12.663 1.638 6.656 2.355 13.483 2.355 20.412l-0.034 45.056zM289.075 595.285c23.279 65.673 41.984 85.675 79.872 85.675h282.010c37.615 0 58.47-22.289 79.77-85.402l42.667-86.357c-13.961 5.12-29.218 7.987-45.397 7.987h-441.788c-14.507 0-28.331-2.321-41.097-6.554l43.964 84.651zM325.7 354.918h-77.892c-14.063 0-25.395 11.401-25.395 25.395 0 13.926 11.332 25.395 25.395 25.395h77.892c14.029 0 25.429-11.469 25.429-25.395 0-13.995-11.401-25.395-25.429-25.395zM600.951 359.936h-181.316c-8.806 0-16.009 7.202-16.009 16.213 0 8.875 7.202 16.077 16.009 16.077h181.316c8.909 0 16.145-7.202 16.145-16.077 0-9.011-7.236-16.213-16.145-16.213zM764.484 354.918h-77.961c-14.029 0-25.361 11.401-25.361 25.395 0 13.926 11.332 25.395 25.361 25.395h77.961c13.995 0 25.395-11.469 25.395-25.395 0.034-13.995-11.366-25.395-25.395-25.395z" data-tags="iconos car" />
<glyph unicode="&#xe60f;" d="M793.771 734.857h-564.087c-48.401 0-87.723-37.82-87.723-84.275v-393.045c0-46.524 39.322-84.378 87.723-84.378h564.053c48.401 0 87.723 37.82 87.723 84.378v393.079c0.034 46.421-39.287 84.241-87.689 84.241zM793.771 247.671h-564.087c-7.066 0-13.278 4.54-13.278 9.865v341.094l255.010-215.415c5.257-4.335 11.913-6.724 18.773-6.724h43.11c6.793 0 13.483 2.389 18.739 6.724l255.078 215.415v-341.094c0-5.325-6.281-9.865-13.346-9.865zM511.727 450.287l-248.081 210.227h496.196l-248.115-210.227z" data-tags="iconos lettera" />
<glyph unicode="&#xe610;" d="M506.368 797.901c-197.12 0-358.4-161.314-358.4-358.468 0-197.052 161.246-358.263 358.4-358.263s358.468 161.212 358.468 358.263c0 197.188-161.314 358.468-358.468 358.468zM753.732 582.861h-103.97c-10.684 46.626-28.604 85.982-50.108 129.126 64.478-25.156 121.924-68.198 154.078-129.126zM506.368 726.153c28.74-43.042 53.828-89.532 68.164-143.292h-136.26c14.37 50.176 39.492 100.25 68.096 143.292zM230.468 367.787c-7.27 21.333-10.82 46.592-10.82 71.646 0 25.156 3.55 50.21 10.82 71.782h121.788c-3.652-25.156-3.652-46.592-3.652-71.782 0-25.020 3.652-46.592 3.652-71.646h-121.788zM259.072 296.141h103.97c10.718-46.694 28.672-86.050 50.142-129.195-64.58 25.225-121.89 68.301-154.112 129.195zM363.042 582.861h-103.97c35.908 60.928 89.532 103.97 154.112 129.126-21.47-43.179-39.39-82.534-50.142-129.126zM506.368 152.747c-28.604 43.008-53.726 89.634-68.096 143.394h136.26c-14.336-50.21-39.424-100.42-68.164-143.394zM588.868 367.787h-164.898c-3.584 25.020-7.168 46.592-7.168 71.646 0 25.156 3.584 46.626 7.168 71.782h168.448c3.55-25.156 7.236-46.592 7.236-71.782 0-25.020-7.236-46.592-10.786-71.646zM599.654 166.946c21.504 39.561 39.39 82.5 50.108 129.195h103.97c-32.154-60.894-89.6-103.97-154.078-129.195zM664.132 367.787c3.55 25.020 3.55 46.592 3.55 71.646 0 25.156-3.55 46.626-3.55 71.782h121.89c7.134-21.572 10.718-46.592 10.718-71.782 0-25.020-3.584-50.313-10.718-71.646h-121.89z" data-tags="iconos mondo" />
<glyph unicode="&#xe611;" d="M753.596 750.899c-46.012 45.807-99.43 68.71-214.153 68.71h-329.353v-765.030h137.967v282.897h191.386c114.722 0 168.175 23.108 214.153 61.474 45.978 38.332 69.018 99.328 69.018 176.196 0.034 68.574-15.497 129.877-69.018 175.753zM638.703 483.977c-22.835-22.801-53.555-38.025-107.008-38.025h-183.671v275.49h175.957c53.726 0 91.853-15.394 114.688-45.943 23.074-30.618 38.4-53.623 38.4-91.716 0.034-46.217-15.292-68.983-38.366-99.806z" data-tags="iconos parking" />
<glyph unicode="&#xe612;" d="M640.922 765.099h-117.385v89.6h114.961v20.139h-266.206v-20.139h115.029v-89.6h-117.487c-48.162 0-87.245-39.083-87.245-87.313v-325.632c0-48.265 39.117-87.347 87.245-87.347h271.087c48.265 0 87.381 39.083 87.381 87.347v325.632c-0.068 48.23-39.117 87.313-87.381 87.313zM414.31 710.485h181.931c41.233 0 74.615-33.382 74.615-74.581 0-41.131-33.382-74.581-74.615-74.581h-181.931c-41.165 0-74.581 33.382-74.581 74.581 0 41.233 33.417 74.581 74.581 74.581zM396.493 348.535h-33.417c-16.657 0-30.071 13.483-30.071 30.003 0 16.555 13.414 29.969 30.071 29.969h33.417c16.486 0 29.901-13.414 29.901-29.969s-13.414-30.003-29.901-30.003zM647.475 348.535h-33.382c-16.657 0-29.969 13.483-29.969 30.003 0 16.555 13.312 29.969 29.969 29.969h33.382c16.452 0 30.071-13.414 30.071-29.969s-13.619-30.003-30.071-30.003zM422.946 234.53l-43.759-218.351h252.416l-43.691 218.351z" data-tags="iconos treno" />
<glyph unicode="&#xe613;" d="M682.325 204.356c91.682 58.675 152.337 161.212 152.337 278.016 0 182.135-147.661 329.796-329.728 329.796-182.135 0-329.83-147.661-329.83-329.796 0-116.804 60.723-219.341 152.337-277.948l-57.549-68.915c-23.381-28.023-3.413-70.417 33.075-70.417h403.831c36.454 0 56.491 42.394 33.075 70.417l-57.549 68.847zM504.934 242.62c-132.437 0-239.718 107.349-239.718 239.718 0 132.437 107.281 239.684 239.718 239.684 132.335 0 239.65-107.247 239.65-239.684 0.068-132.369-107.315-239.718-239.65-239.718zM504.934 594.466c-14.95 0-29.082-3.038-42.018-8.26 19.49-31.949 4.847-84.958-44.1-84.958-8.875 0-16.725 1.809-23.347 4.847-1.673-7.646-2.594-15.565-2.594-23.723 0-61.884 50.176-112.060 112.026-112.060 61.884 0 112.026 50.176 112.026 112.060-0.034 61.884-50.176 112.094-111.991 112.094z" data-tags="iconos webcam" />
</font>
</defs>
</svg>
